HIERARCHY
ROOT Hips
{
	OFFSET 0.00000 0.00000 0.00000
	CHANNELS 6 Xposition Yposition Zposition Zrotation Yrotation Xrotation 
	JOINT LHipJoint
	{
		OFFSET 0 0 0
		CHANNELS 3 Zrotation Yrotation Xrotation
		JOINT LeftHip
		{
			OFFSET 1.56741 -1.82513 0.67319
			CHANNELS 3 Zrotation Yrotation Xrotation
			JOINT LeftKnee
			{
				OFFSET 2.35708 -6.47604 0.00000
				CHANNELS 3 Zrotation Yrotation Xrotation
				JOINT LeftAnkle
				{
					OFFSET 2.70636 -7.43567 0.00000
					CHANNELS 3 Zrotation Yrotation Xrotation
					JOINT LeftToe
					{
						OFFSET 0.20427 -0.56122 2.08535
						CHANNELS 3 Zrotation Yrotation Xrotation
						End Site
						{
							OFFSET 0.00000 -0.00000 1.08535
						}
					}
				}
			}
		}
	}
	JOINT RHipJoint
	{
		OFFSET 0 0 0
		CHANNELS 3 Zrotation Yrotation Xrotation
		JOINT RightHip
		{
			OFFSET -1.51422 -1.82513 0.67319
			CHANNELS 3 Zrotation Yrotation Xrotation
			JOINT RightKnee
			{
				OFFSET -2.48824 -6.83638 0.00000
				CHANNELS 3 Zrotation Yrotation Xrotation
				JOINT RightAnkle
				{
					OFFSET -2.70033 -7.41909 0.00000
					CHANNELS 3 Zrotation Yrotation Xrotation
					JOINT RightToe
					{
						OFFSET -0.19750 -0.54263 2.22151
						CHANNELS 3 Zrotation Yrotation Xrotation
						End Site
						{
							OFFSET -0.00000 -0.00000 1.14915
						}
					}
				}
			}
		}
	}
	JOINT lowerback
	{
		OFFSET 0 0 0
		CHANNELS 3 Zrotation Yrotation Xrotation
		JOINT Chest
		{
			OFFSET -0.01567 2.12874 -0.15842
			CHANNELS 3 Zrotation Yrotation Xrotation
			JOINT Chest2
			{
				OFFSET 0.06098 2.13326 -0.01043
				CHANNELS 3 Zrotation Yrotation Xrotation
				JOINT lowerneck
				{
					OFFSET 0 0 0
					CHANNELS 3 Zrotation Yrotation Xrotation
					JOINT Neck
					{
						OFFSET -0.05040 1.78432 0.13387
						CHANNELS 3 Zrotation Yrotation Xrotation
						JOINT Head
						{
							OFFSET -0.00180 1.76880 -0.33303
							CHANNELS 3 Zrotation Yrotation Xrotation
							End Site
							{
								OFFSET 0.00734 1.81249 -0.12719
							}
						}
					}
				}
				JOINT LeftCollar
				{
					OFFSET 0 0 0
					CHANNELS 3 Zrotation Yrotation Xrotation
					JOINT LeftShoulder
					{
						OFFSET 3.72199 0.94188 -0.54317
CHANNELS 3 Zrotation Xrotation Yrotation
						JOINT LeftElbow
						{
OFFSET 0 -5.146010 0.000000
CHANNELS 3 Zrotation Xrotation Yrotation
							JOINT LeftWrist
							{
OFFSET 0 -3.644520 -0.000000
CHANNELS 3 Zrotation Xrotation Yrotation
								JOINT lhand
								{
									OFFSET 0 0 0
CHANNELS 3 Zrotation Xrotation Yrotation
									JOINT LFingers
									{
OFFSET 0 -0.562280 0.000000
CHANNELS 3 Zrotation Xrotation Yrotation
										End Site
										{
OFFSET 0 -0.453320 0.000000
										}
									}
								}
								JOINT LThumb
								{
OFFSET 0 0.000000 0.000000
CHANNELS 3 Zrotation Xrotation Yrotation
									End Site
									{
OFFSET 0 -0.460250 0.460250
									}
								}
							}
						}
					}
				}
				JOINT RightCollar
				{
					OFFSET 0 0 0
					CHANNELS 3 Zrotation Yrotation Xrotation
					JOINT RightShoulder
					{
						OFFSET -3.30253 1.22679 -0.46941
CHANNELS 3 Zrotation Xrotation Yrotation
						JOINT RightElbow
						{
OFFSET 0 -5.339130 0.000000
CHANNELS 3 Zrotation Xrotation Yrotation
							JOINT RightWrist
							{
OFFSET 0 -3.564780 -0.000000
CHANNELS 3 Zrotation Xrotation Yrotation
								JOINT rhand
								{
									OFFSET 0 0 0
CHANNELS 3 Zrotation Xrotation Yrotation
									JOINT RFingers
									{
OFFSET 0 -0.857470 0.000000
CHANNELS 3 Zrotation Xrotation Yrotation
										End Site
										{
OFFSET 0 -0.691320 0.000000
										}
									}
								}
								JOINT RThumb
								{
OFFSET 0 0.000000 0.000000
CHANNELS 3 Zrotation Xrotation Yrotation
									End Site
									{
OFFSET 0 -0.701870 0.701870
									}
								}
							}
						}
					}
				}
			}
		}
	}
}
MOTION
Frames: 8
Frame Time: 0.008333333333333333
-9.633300 17.427400 -14.164800 1.437500 -8.610300 0.959700 0.000000 0.000000 0.000000 -17.871400 -6.011200 -5.147700 2.195700 9.262400 26.619700 0.781800 4.542600 -18.954800 0.934700 -6.158500 -17.244900 0.000000 0.000000 0.000000 20.148100 4.748100 -17.645000 -4.984300 -13.366100 40.754700 -1.255100 0.558300 -21.010800 -0.723800 -5.436400 15.157400 -3.806700 -1.616100 4.666000 1.993700 -2.307800 0.528000 4.335700 -1.121500 -1.838400 -6.364600 -0.278100 -17.655900 0.551300 1.287600 22.164600 1.427100 0.107100 9.940400 0.000000 -0.000000 0.000000 16.512200 1.386200 -34.063100 27.030900 -38.208700 9.518200 10.295000 4.572100 -27.195100 0.000000 0.000000 0.000000 -7.125000 0.000000 0.000000 -21.574800 56.222200 6.139200 0.000000 -0.000000 0.000000 -12.316600 4.041600 21.545600 -21.114100 -31.961200 -6.110200 3.523500 9.115300 -9.613600 0.000000 0.000000 0.000000 7.125000 0.000000 -0.000000 21.416600 20.565000 13.488900
-10.036163 17.468624 -13.993612 0.198850 -7.483152 0.103011 0.000000 0.000000 0.000000 -15.136735 -6.275906 -8.264095 3.568274 11.561598 34.199346 0.581519 4.079403 -16.471008 1.184345 -6.890269 -19.397273 0.000000 0.000000 0.000000 23.265716 3.013521 -14.616152 -4.359114 -12.623536 37.975132 -1.119311 -0.842603 -20.316554 -0.465117 -4.374253 12.132037 -2.441018 -0.960235 5.810080 2.079201 -1.380873 0.811640 3.624182 -0.662708 -2.311165 -6.425028 -0.037366 -17.485228 0.135788 1.742782 22.287767 1.352543 0.262294 9.942532 0.000000 0.000000 0.000000 15.362244 2.298200 -31.306922 26.511787 -37.709421 9.199036 7.834937 4.470406 -29.266650 0.000000 0.000000 0.000000 -7.125000 0.000000 0.000000 -25.493069 57.600466 8.220148 0.000000 0.000000 0.000000 -12.691699 4.894747 20.613506 -20.823171 -31.621298 -5.957000 5.293382 9.555516 -9.559655 0.000000 0.000000 0.000000 7.125000 0.000000 0.000000 22.600651 20.601599 14.344007
-10.375025 17.535016 -13.795213 -0.494857 -6.467019 -0.227586 0.000000 0.000000 0.000000 -12.028264 -4.761442 -15.610189 5.959976 14.388689 44.819500 0.280601 0.433590 -10.177346 0.849995 -5.878750 -16.433367 0.000000 0.000000 0.000000 25.255166 0.882525 -12.041235 -3.693563 -11.740958 34.821767 -1.112829 -0.692063 -20.200948 -0.562040 -4.800762 13.341400 -1.232434 0.082481 6.391175 1.753105 0.074601 0.812094 2.494820 0.057120 -2.749766 -5.974610 -0.035458 -18.207694 0.131672 1.720658 23.815180 1.293456 0.249363 10.636117 0.000000 0.000000 0.000000 15.146607 3.050161 -30.472252 25.777591 -36.988217 8.753472 7.569610 4.664519 -29.120359 0.000000 0.000000 0.000000 -7.125000 0.000000 0.000000 -25.690626 57.396117 8.220649 0.000000 0.000000 0.000000 -13.571919 6.123885 20.322874 -21.352538 -32.237559 -6.236977 6.318519 8.497579 -7.880569 0.000000 0.000000 0.000000 7.125000 0.000000 0.000000 23.556993 22.137200 14.154452
-10.588807 17.562774 -13.521919 -0.445109 -6.231773 -0.403740 0.000000 0.000000 0.000000 -10.995771 -5.282289 -20.481341 6.412574 14.816623 46.615928 0.321650 -3.362510 -10.084436 0.852419 -5.886759 -16.456581 0.000000 0.000000 0.000000 25.977333 0.050966 -9.900694 -3.339555 -11.225389 33.043963 -1.139201 -0.790468 -20.474109 -0.813620 -5.749727 16.061742 -0.218620 1.096991 6.710964 1.236293 1.481815 0.817787 1.261577 0.745321 -2.956187 -5.914378 0.168207 -18.322756 0.012717 2.038700 23.735420 1.286563 0.390865 10.620488 0.000000 0.000000 0.000000 14.834050 5.346307 -29.012194 27.018114 -38.196399 9.510286 10.266710 2.927482 -21.940780 0.000000 0.000000 0.000000 -7.125000 0.000000 0.000000 -18.677052 51.278564 2.985137 0.000000 0.000000 0.000000 -15.642013 6.174195 21.262451 -21.912923 -32.878424 -6.538479 6.624762 7.181576 -5.589397 0.000000 0.000000 0.000000 7.125000 0.000000 0.000000 24.182908 24.238053 13.301115
-10.739503 17.605862 -13.159936 -0.383210 -5.801146 -0.126669 0.000000 0.000000 0.000000 -11.051213 -6.575655 -22.678535 4.589429 12.905109 39.015716 0.356267 -0.166190 -11.213957 0.503899 -4.541636 -12.607155 0.000000 0.000000 0.000000 26.505716 0.104840 -8.374822 -3.155051 -10.941839 32.084077 -1.232324 -1.706913 -21.652651 -0.951841 -6.212941 17.403617 0.659015 2.093319 6.632290 0.726427 2.855129 0.824108 0.122368 1.416248 -2.869486 -6.027632 0.024298 -19.184793 -0.127421 1.995614 24.039603 1.258359 0.333525 10.903132 0.000000 0.000000 0.000000 14.579023 6.721859 -28.161595 26.615681 -37.810160 9.262518 5.014565 3.037346 -34.259950 0.000000 0.000000 0.000000 -7.125000 0.000000 0.000000 -32.818434 61.268359 13.834169 0.000000 0.000000 0.000000 -17.142280 5.251761 20.748320 -22.016617 -32.995832 -6.594914 4.656969 6.194758 -5.626364 0.000000 0.000000 0.000000 7.125000 0.000000 0.000000 22.831875 24.253353 12.413089
-10.827562 17.559093 -12.739656 -0.796977 -4.834404 0.421888 0.000000 0.000000 0.000000 -10.754675 -8.987957 -24.030753 2.264593 9.393377 27.036296 0.441189 0.026300 -12.557998 1.465525 -7.649491 -21.654911 0.000000 0.000000 0.000000 27.490290 0.196073 -5.990554 -2.822514 -10.402066 30.288761 -1.218878 -3.206041 -22.233637 -0.767209 -5.592018 15.605537 1.882189 2.706369 6.286646 0.294616 3.739628 0.756268 -1.062954 1.843497 -2.638164 -5.889435 0.492821 -18.348164 -0.393746 2.562521 22.188193 1.196124 0.633999 10.054700 0.000000 0.000000 0.000000 14.482201 8.448084 -25.594240 26.823136 -38.010004 9.389986 -0.904103 -0.025578 -35.480459 0.000000 0.000000 0.000000 -7.125000 0.000000 0.000000 -39.943901 60.797294 16.908878 0.000000 0.000000 0.000000 -18.057495 4.069848 21.339473 -22.707406 -33.767218 -6.975024 4.647986 5.575600 -6.383622 0.000000 0.000000 0.000000 7.125000 0.000000 0.000000 22.691006 23.553001 12.727613
-10.813156 17.442336 -12.215453 -2.623267 -4.700165 1.555320 0.000000 0.000000 0.000000 -8.101301 -15.927077 -22.614655 0.933607 6.154829 17.234364 0.467709 10.099056 -20.285395 1.522137 -7.790350 -22.079184 0.000000 0.000000 0.000000 29.366694 0.093841 -4.841139 -2.757858 -10.292355 29.928666 -1.369549 -3.465170 -23.594320 -0.394122 -4.030450 11.162564 4.876011 2.964086 4.873382 0.109259 4.205289 0.666045 -2.864816 2.069119 -1.698789 -5.895340 0.527880 -18.219520 -1.197739 2.794023 21.760860 0.941266 0.658690 9.890797 0.000000 0.000000 0.000000 13.954181 9.963422 -20.896199 27.382478 -38.541525 9.736489 -1.186737 -3.257295 -27.342704 0.000000 0.000000 0.000000 -7.125000 0.000000 0.000000 -32.734240 54.138664 8.026064 0.000000 0.000000 0.000000 -18.221274 1.396003 22.833717 -23.204626 -34.311733 -7.253375 3.503360 5.789935 -6.904947 0.000000 0.000000 0.000000 7.125000 0.000000 0.000000 21.819742 23.088075 12.413741
-10.767233 17.375482 -11.700459 -3.247277 -5.955722 1.360455 0.000000 0.000000 0.000000 -9.308422 -11.188316 -24.560684 1.151202 6.812358 19.160745 -0.000934 8.627066 -12.276117 0.871197 -5.951136 -16.642762 0.000000 0.000000 0.000000 29.719383 -0.219267 -2.396597 -2.687509 -10.171107 29.532686 -1.473208 -3.468771 -24.403480 -0.150462 -2.499677 6.888848 5.366579 3.197205 5.915827 0.189490 4.611822 0.530065 -3.150863 2.245892 -2.355968 -6.227020 0.612712 -18.230917 -1.601841 3.128827 22.070355 0.901692 0.726353 10.004224 0.000000 0.000000 0.000000 13.046879 11.293402 -18.430920 28.040507 -39.153515 10.149257 -2.680306 -4.979891 -27.582889 0.000000 0.000000 0.000000 -7.125000 0.000000 0.000000 -34.275002 54.067982 8.394560 0.000000 0.000000 0.000000 -18.686832 -0.579624 25.149577 -24.819563 -36.019000 -8.183560 3.671383 4.696531 -6.605056 0.000000 0.000000 0.000000 7.125000 0.000000 0.000000 21.984544 23.364343 12.369974
